<?xml version="1.0" encoding="UTF-8" ?>
<!DOCTYPE svg PUBLIC "-//W3C//DTD SVG 1.1//EN" "http://www.w3.org/Graphics/SVG/1.1/DTD/svg11.dtd">
<svg width="56pt" height="110pt" viewBox="0 0 56 110" version="1.1" xmlns="http://www.w3.org/2000/svg">
<path fill="#ffffff" d=" M 0.00 0.00 L 56.00 0.00 L 56.00 110.00 L 0.00 110.00 L 0.00 0.00 Z" />
<path fill="#14a8e1" d=" M 20.30 3.51 C 28.50 1.04 37.99 2.68 44.47 8.44 C 53.24 15.73 55.66 29.29 50.26 39.28 C 46.07 47.38 37.14 52.89 27.96 52.55 C 18.29 52.89 8.96 46.72 5.08 37.93 C 2.85 33.28 2.54 27.94 3.26 22.89 C 4.80 13.94 11.63 6.21 20.30 3.51 Z" />
<path fill="#ffffff" d=" M 21.38 5.49 C 34.15 1.15 48.92 10.68 50.71 23.91 C 53.05 36.25 43.26 49.00 30.85 50.31 C 18.62 52.19 6.28 42.33 5.15 30.07 C 3.70 19.35 11.09 8.51 21.38 5.49 Z" />
<path fill="#14a8e1" d=" M 21.39 7.45 C 27.31 5.57 34.09 6.29 39.33 9.69 C 45.80 13.66 49.66 21.43 49.00 28.98 C 48.59 39.35 39.38 48.39 28.98 48.53 C 19.69 49.20 10.51 42.83 7.91 33.89 C 4.25 23.31 10.64 10.65 21.39 7.45 Z" />
<path fill="#a2cd3a" d=" M 26.22 55.34 C 35.98 54.59 45.90 59.59 51.03 67.93 C 53.49 71.50 54.45 75.78 55.35 79.95 C 56.48 92.99 47.18 106.56 34.05 108.93 C 28.03 108.68 21.49 110.17 16.00 106.96 C 7.52 102.94 1.66 94.25 0.81 84.93 C -0.86 70.25 11.40 55.84 26.22 55.34 Z" />
<path fill="#ffffff" d=" M 21.37 58.51 C 33.08 54.95 46.54 61.72 51.00 73.03 C 54.74 81.75 52.76 92.45 46.27 99.35 C 40.47 105.62 31.31 108.83 22.91 106.84 C 15.72 105.37 9.29 100.51 5.96 93.96 C 2.16 86.93 2.17 78.04 5.97 71.01 C 9.08 64.95 14.83 60.35 21.37 58.51 Z" />
<path fill="#a2cd3a" d=" M 23.21 60.21 C 33.87 57.70 45.65 64.04 49.35 74.36 C 53.14 84.02 49.41 95.98 40.60 101.55 C 31.44 107.79 17.84 106.02 10.74 97.46 C 4.50 90.39 3.36 79.37 8.15 71.23 C 11.25 65.59 16.91 61.48 23.21 60.21 Z" />
</svg>
